<svg width="470" height="354" viewBox="0 0 470 354" fill="none" xmlns="http://www.w3.org/2000/svg">
<path d="M228.279 337.868L17.108 213.119C10.387 209.35 4.61776 203.15 11.1743 199.099L223.109 76.9803C226.293 75.0077 231.123 73.716 234.354 75.5948L456.029 204.218C462.75 208.117 463.961 219.013 457.204 222.924L256.15 337.644C251.926 340.103 247.132 341.416 242.244 341.455C237.356 341.494 232.542 340.258 228.279 337.868V337.868Z" fill="#C4C4C4"/>
<path opacity="0.32" d="M274.88 271.771L266.396 265.9L214.391 294.081L224.966 300.34C241.78 291.134 258.253 281.317 274.88 271.771Z" fill="url(#paint0_linear_1_54)"/>
<path opacity="0.32" d="M435.443 222.207L403.542 200.038L351.536 228.219L388.29 249.954C388.29 249.954 418.3 231.977 435.443 222.207Z" fill="url(#paint1_linear_1_54)"/>
<path opacity="0.32" d="M148.273 227.714L100.016 259.23L179.199 307.138L232.039 272.675" fill="url(#paint2_linear_1_54)"/>
<path d="M155.406 42.5405L147.58 46.0045L155.1 49.3157L156.921 45.4291" fill="#68E1FD"/>
<path d="M226.775 272.628L161.668 234.713C159.045 233.187 156.868 231 155.355 228.371C153.842 225.742 153.045 222.763 153.044 219.73L150.987 47.5075C150.987 42.9867 158.037 40.6853 161.903 42.9867L229.266 82.7457C230.937 83.7318 232.322 85.1364 233.285 86.8208C234.247 88.5052 234.753 90.4112 234.753 92.3508V268.072C234.758 269.006 234.515 269.925 234.048 270.734C233.581 271.544 232.907 272.214 232.095 272.678C231.283 273.141 230.363 273.381 229.428 273.372C228.494 273.363 227.578 273.107 226.775 272.628V272.628Z" fill="#68E1FD"/>
<path d="M232.039 272.675L223.52 277.172L224.507 271.243L230.418 270.174" fill="#68E1FD"/>
<path d="M218.656 276.949L153.549 239.034C150.926 237.508 148.749 235.322 147.236 232.692C145.723 230.063 144.926 227.084 144.925 224.051V50.1847C144.923 49.3712 145.137 48.5718 145.545 47.8679C145.953 47.164 146.54 46.5806 147.247 46.1773C147.954 45.774 148.755 45.565 149.569 45.5718C150.383 45.5786 151.18 45.8008 151.881 46.2158L221.1 87.0668C222.771 88.0529 224.156 89.4575 225.118 91.1419C226.081 92.8263 226.587 94.7323 226.587 96.6719V272.393C226.587 273.32 226.342 274.231 225.878 275.034C225.413 275.836 224.745 276.502 223.94 276.964C223.136 277.427 222.224 277.668 221.296 277.666C220.368 277.663 219.457 277.416 218.656 276.949V276.949Z" fill="#F4F4F4"/>
<path d="M222.451 107.275L148.273 64.7684V216.876L222.451 259.723V107.275Z" fill="white"/>
<path d="M179.544 249.098C181.381 248.659 182.39 246.294 181.798 243.816C181.205 241.337 179.236 239.682 177.399 240.121C175.563 240.559 174.554 242.924 175.146 245.403C175.739 247.882 177.708 249.536 179.544 249.098Z" fill="#BABABC"/>
<path d="M175.686 72.0838C175.687 72.3748 175.764 72.6604 175.911 72.9119C176.057 73.1634 176.267 73.3719 176.52 73.5163L190.855 81.7358C191.107 81.8796 191.392 81.955 191.682 81.9543C191.971 81.9536 192.256 81.8769 192.507 81.7319C192.758 81.587 192.966 81.3787 193.112 81.128C193.257 80.8773 193.334 80.5929 193.334 80.3033V79.951C193.333 79.6557 193.253 79.3661 193.102 79.1121C192.952 78.8582 192.736 78.6492 192.477 78.5067L178.142 70.6278C177.889 70.4887 177.604 70.4181 177.316 70.4227C177.028 70.4273 176.745 70.5072 176.497 70.6542C176.249 70.8013 176.044 71.0106 175.902 71.2613C175.759 71.512 175.685 71.7955 175.686 72.0838V72.0838Z" fill="#CCCCCC"/>
<path d="M169.872 69.7586C170.712 69.448 171.049 68.2693 170.626 67.1259C170.202 65.9825 169.178 65.3075 168.338 65.6181C167.498 65.9287 167.161 67.1074 167.584 68.2508C168.008 69.3942 169.032 70.0693 169.872 69.7586Z" fill="#CCCCCC"/>
<path d="M329.787 42.0474L337.613 45.5113L330.093 48.8226L328.272 44.9242" fill="#68E1FD"/>
<path d="M258.383 272.111L323.489 234.196C326.102 232.674 328.271 230.496 329.781 227.878C331.292 225.26 332.092 222.294 332.102 219.272L334.205 47.0143C334.205 42.4936 327.155 40.1921 323.29 42.4936L255.927 82.2525C254.255 83.2386 252.87 84.6432 251.908 86.3276C250.946 88.012 250.44 89.918 250.44 91.8576V267.579C250.442 268.506 250.69 269.416 251.157 270.217C251.624 271.018 252.294 271.681 253.099 272.141C253.905 272.601 254.817 272.84 255.745 272.835C256.672 272.83 257.582 272.58 258.383 272.111Z" fill="#68E1FD"/>
<path d="M253.154 272.182L261.672 276.679L260.685 270.749L254.775 269.681" fill="#68E1FD"/>
<path d="M266.537 276.444L331.644 238.529C334.267 237.003 336.444 234.817 337.957 232.188C339.47 229.559 340.267 226.579 340.268 223.546V49.6798C340.27 48.8663 340.056 48.0669 339.648 47.363C339.24 46.6591 338.653 46.0757 337.946 45.6724C337.239 45.2691 336.438 45.0602 335.624 45.0669C334.81 45.0737 334.012 45.2959 333.312 45.7109L264.093 86.5854C262.422 87.5715 261.037 88.9761 260.074 90.6605C259.112 92.3449 258.606 94.2509 258.606 96.1905V271.9C258.608 272.826 258.854 273.736 259.319 274.537C259.785 275.338 260.453 276.002 261.257 276.462C262.062 276.923 262.973 277.164 263.9 277.161C264.827 277.158 265.736 276.911 266.537 276.444Z" fill="#F4F4F4"/>
<path d="M262.742 106.782L336.919 64.2753V216.371L262.742 259.23V106.782Z" fill="white"/>
<path d="M310.078 244.942C310.67 242.463 309.661 240.098 307.825 239.659C305.988 239.221 304.019 240.875 303.426 243.354C302.834 245.833 303.843 248.198 305.68 248.636C307.516 249.075 309.485 247.42 310.078 244.942Z" fill="#BABABC"/>
<path d="M309.507 71.5907C309.506 71.8817 309.428 72.1673 309.282 72.4188C309.135 72.6703 308.925 72.8788 308.673 73.0233L294.337 81.2428C294.086 81.3866 293.801 81.4619 293.511 81.4612C293.221 81.4605 292.937 81.3839 292.686 81.2389C292.435 81.0939 292.226 80.8857 292.081 80.635C291.936 80.3843 291.859 80.0999 291.858 79.8102V79.458C291.859 79.1627 291.939 78.873 292.09 78.6191C292.241 78.3651 292.457 78.1561 292.716 78.0137L307.051 70.1464C307.303 70.0079 307.586 69.9372 307.874 69.9413C308.161 69.9455 308.443 70.0242 308.69 70.1699C308.938 70.3156 309.144 70.5232 309.287 70.7723C309.43 71.0214 309.506 71.3035 309.507 71.5907V71.5907Z" fill="#CCCCCC"/>
<path d="M317.636 67.781C318.059 66.6376 317.722 65.4589 316.882 65.1482C316.042 64.8376 315.018 65.5127 314.594 66.6561C314.171 67.7995 314.508 68.9781 315.348 69.2888C316.188 69.5994 317.212 68.9243 317.636 67.781Z" fill="#CCCCCC"/>
<path d="M188.164 133.769C192.132 132.301 193.716 126.704 191.703 121.267C189.689 115.83 184.84 112.612 180.872 114.079C176.904 115.547 175.32 121.144 177.333 126.581C179.347 132.019 184.196 135.237 188.164 133.769Z" fill="#868686"/>
<path d="M184.475 120.638V117.702" stroke="#2E3192" stroke-width="3.045" stroke-miterlimit="10" stroke-linecap="round"/>
<path d="M184.475 108.156V82.1821C184.475 69.207 186.108 59.6019 194.286 49.2101C202.737 38.2915 214.711 30.6359 228.173 27.5458C236.853 25.6509 245.826 25.5216 254.557 27.1657C263.287 28.8098 271.598 32.1937 278.992 37.1157C286.179 41.7152 292.21 47.9067 296.617 55.2104C301.693 64.0287 300.612 72.2247 300.612 81.9472V115.765" stroke="#2E3192" stroke-width="3.045" stroke-miterlimit="10" stroke-linecap="round" stroke-dasharray="5.13 8.2"/>
<path d="M300.682 120.509V123.444" stroke="#2E3192" stroke-width="3.045" stroke-miterlimit="10" stroke-linecap="round"/>
<path d="M289.826 123.28L311.739 110.727L301.576 136.161L289.826 123.28Z" fill="#1B1464"/>
<path opacity="0.32" d="M51.7 225.789C62.275 218.896 72.991 212.121 83.6482 205.299L63.3912 190.539L26.696 205.804C33.7342 213.847 42.5232 220.082 51.7 225.789Z" fill="url(#paint3_linear_1_54)"/>
<path d="M91.2975 152.999C91.1852 152.514 90.9731 152.059 90.6748 151.66C90.1117 151.001 89.4449 150.438 88.7008 149.993C78.7485 143.265 64.9893 141.409 54.473 147.985C52.123 149.488 48.504 152.893 49.9258 156.099C50.7483 157.966 53.251 159.046 54.9783 159.809C60.6183 162.287 66.9163 163.473 72.9675 164.506C75.2 164.882 77.4443 165.258 79.7003 165.469C81.2571 165.621 82.8271 165.378 84.2649 164.762C85.7027 164.146 86.9617 163.178 87.9253 161.946C89.488 159.939 92.0025 155.864 91.2975 152.999Z" fill="#754C24"/>
<path d="M49.6555 154.608C49.6555 154.608 58.7265 162.827 74.401 161.653C90.0755 160.479 91.2975 153.034 91.2975 153.034C91.2975 153.034 87.2438 204.946 85.0935 205.874C82.9433 206.802 74.9415 210.571 71.0875 210.911C67.2335 211.252 55.0018 206.308 54.6963 204.958C54.3908 203.608 49.6555 154.608 49.6555 154.608Z" fill="#68E1FD"/>
<path d="M52.5225 78.953C52.0408 77.9784 50.5603 78.8356 51.042 79.8102C61.7698 101.416 63.8613 125.746 65.7883 149.371C65.8705 150.451 67.586 150.463 67.5038 149.371C65.5415 125.428 63.3913 100.84 52.5225 78.953Z" fill="#007F68"/>
<path d="M51.1477 79.1526C51.1477 79.1526 54.144 90.3663 51.0537 95.9674C47.9635 101.568 45.402 102.696 49.1032 109.694C52.8045 116.692 62.6745 117.608 63.3325 122.986C63.9905 128.364 58.5972 88.6755 51.1477 79.1526Z" fill="#007F68"/>
<path d="M85.4578 99.396C77.2196 116.678 72.59 135.456 71.8513 154.584C71.8513 155.911 73.884 155.911 73.9428 154.584C74.6592 135.821 79.1887 117.399 87.2555 100.441C87.8195 99.2434 86.0218 98.1983 85.4578 99.396Z" fill="#007F68"/>
<path d="M86.95 104.868C86.95 103.694 86.7033 101.533 86.8208 99.5487C86.4291 99.807 86.0374 100.058 85.6458 100.3C81.5685 110.199 75.4938 133.448 73.6608 140.576C76.14 135.245 86.292 134.517 89.2648 126.849C90.5821 123.619 90.645 120.013 89.441 116.739C87.9682 112.944 87.1267 108.934 86.95 104.868V104.868Z" fill="#007F68"/>
<path d="M415.586 227.691C429.791 227.691 441.306 220.951 441.306 212.637C441.306 204.324 429.791 197.584 415.586 197.584C401.381 197.584 389.865 204.324 389.865 212.637C389.865 220.951 401.381 227.691 415.586 227.691Z" fill="#FF912E"/>
<path d="M389.865 212.637V208.281L392.661 211.757L389.865 212.637Z" fill="#E0944F"/>
<path d="M441.306 208.281V212.637H438.04L440.425 209.138L441.306 208.281Z" fill="#E0944F"/>
<path d="M415.586 223.335C429.791 223.335 441.306 216.595 441.306 208.281C441.306 199.967 429.791 193.228 415.586 193.228C401.381 193.228 389.865 199.967 389.865 208.281C389.865 216.595 401.381 223.335 415.586 223.335Z" fill="#FFB92C"/>
<path d="M428.628 206.273C428.812 206.635 428.882 207.045 428.828 207.447L428.722 207.847H424.022C424.062 207.716 424.09 207.583 424.104 207.447C424.087 207.142 423.99 206.846 423.822 206.59C423.55 206.128 423.139 205.762 422.647 205.545C421.964 205.19 421.209 204.993 420.438 204.97C419.726 204.915 419.011 205.024 418.347 205.287C417.689 205.569 417.434 205.937 417.583 206.391C417.804 206.947 418.145 207.449 418.582 207.858C419.088 208.373 419.563 208.918 420.004 209.49C420.213 209.737 420.348 210.037 420.394 210.357C420.44 210.677 420.394 211.004 420.262 211.299C419.747 212.15 418.935 212.782 417.983 213.072C416.406 213.727 414.72 214.078 413.012 214.105C411.169 214.168 409.328 213.91 407.572 213.342L404.87 214.516L401.709 212.978L404.329 211.804C403.855 211.476 403.431 211.08 403.072 210.629C402.802 210.322 402.591 209.968 402.449 209.584C402.359 209.311 402.304 209.027 402.285 208.739C402.253 208.545 402.253 208.346 402.285 208.152L402.379 207.929H407.079C407.03 208.083 406.99 208.24 406.961 208.398C406.981 208.783 407.111 209.155 407.337 209.467C407.712 210.053 408.252 210.514 408.888 210.794C409.736 211.22 410.666 211.46 411.614 211.498C412.472 211.557 413.332 211.421 414.129 211.099C414.779 210.817 415.022 210.449 414.857 209.995C414.627 209.435 414.273 208.933 413.823 208.528C413.307 208.019 412.828 207.473 412.39 206.895C412.184 206.644 412.055 206.338 412.02 206.015C411.984 205.692 412.043 205.366 412.19 205.075C412.739 204.218 413.57 203.579 414.54 203.267C416.056 202.655 417.675 202.337 419.31 202.328C421.041 202.268 422.767 202.535 424.398 203.115L427.089 201.94L430.038 203.549L427.336 204.723C427.897 205.115 428.343 205.651 428.628 206.273V206.273Z" fill="#EA8B24"/>
<path d="M415.633 221.104C427.554 221.104 437.218 215.447 437.218 208.469C437.218 201.491 427.554 195.834 415.633 195.834C403.712 195.834 394.048 201.491 394.048 208.469C394.048 215.447 403.712 221.104 415.633 221.104Z" stroke="#F7931E" stroke-width="2.03" stroke-miterlimit="10"/>
<path d="M415.586 222.195C429.791 222.195 441.306 215.456 441.306 207.142C441.306 198.828 429.791 192.089 415.586 192.089C401.381 192.089 389.865 198.828 389.865 207.142C389.865 215.456 401.381 222.195 415.586 222.195Z" fill="#FF912E"/>
<path d="M389.865 207.142V202.797L392.661 206.273L389.865 207.142Z" fill="#E0944F"/>
<path d="M441.306 202.797V207.142H438.04L440.425 203.655L441.306 202.797Z" fill="#E0944F"/>
<path d="M415.586 217.851C429.791 217.851 441.306 211.111 441.306 202.797C441.306 194.484 429.791 187.744 415.586 187.744C401.381 187.744 389.865 194.484 389.865 202.797C389.865 211.111 401.381 217.851 415.586 217.851Z" fill="#FFB92C"/>
<path d="M428.628 200.79C428.812 201.152 428.882 201.561 428.828 201.964L428.722 202.363H424.022C424.062 202.233 424.09 202.099 424.104 201.964C424.087 201.658 423.99 201.363 423.822 201.107C423.55 200.644 423.139 200.279 422.647 200.062C421.964 199.707 421.209 199.51 420.438 199.486C419.726 199.432 419.011 199.54 418.347 199.803C417.689 200.085 417.434 200.453 417.583 200.907C417.804 201.464 418.145 201.965 418.582 202.375C419.088 202.89 419.563 203.435 420.004 204.007C420.213 204.253 420.348 204.554 420.394 204.874C420.44 205.194 420.394 205.52 420.262 205.815C419.747 206.667 418.935 207.298 417.983 207.588C416.406 208.244 414.72 208.594 413.012 208.622C411.168 208.684 409.328 208.426 407.572 207.858L404.87 209.033L401.768 207.53L404.388 206.355C403.914 206.028 403.49 205.632 403.131 205.181C402.861 204.874 402.65 204.52 402.508 204.136C402.418 203.862 402.363 203.578 402.344 203.291C402.312 203.096 402.312 202.898 402.344 202.704L402.437 202.481H407.137C407.088 202.634 407.049 202.791 407.02 202.95C407.039 203.335 407.17 203.706 407.396 204.019C407.771 204.604 408.31 205.066 408.947 205.346C409.795 205.772 410.725 206.012 411.673 206.05C412.531 206.109 413.39 205.973 414.187 205.651C414.838 205.369 415.08 205.001 414.916 204.547C414.685 203.987 414.332 203.485 413.882 203.079C413.365 202.571 412.886 202.025 412.448 201.447C412.242 201.196 412.114 200.89 412.079 200.567C412.043 200.244 412.102 199.917 412.249 199.627C412.798 198.77 413.629 198.13 414.599 197.819C416.154 197.222 417.809 196.931 419.475 196.962C421.205 196.902 422.931 197.169 424.563 197.748L427.253 196.574L430.203 198.183L427.5 199.357C427.986 199.737 428.373 200.229 428.628 200.79V200.79Z" fill="#EA8B24"/>
<path d="M415.633 215.62C427.554 215.62 437.218 209.963 437.218 202.985C437.218 196.008 427.554 190.351 415.633 190.351C403.712 190.351 394.048 196.008 394.048 202.985C394.048 209.963 403.712 215.62 415.633 215.62Z" stroke="#F7931E" stroke-width="2.03" stroke-miterlimit="10"/>
<path d="M415.985 216.994C430.19 216.994 441.706 210.254 441.706 201.94C441.706 193.627 430.19 186.887 415.985 186.887C401.78 186.887 390.264 193.627 390.264 201.94C390.264 210.254 401.78 216.994 415.985 216.994Z" fill="#FF912E"/>
<path d="M390.264 201.94V197.584L393.061 201.06L390.264 201.94Z" fill="#E0944F"/>
<path d="M441.706 197.584V201.94H438.44L440.837 198.441L441.706 197.584Z" fill="#E0944F"/>
<path d="M415.985 212.637C430.19 212.637 441.706 205.898 441.706 197.584C441.706 189.27 430.19 182.531 415.985 182.531C401.78 182.531 390.264 189.27 390.264 197.584C390.264 205.898 401.78 212.637 415.985 212.637Z" fill="#FFB92C"/>
<path d="M429.028 195.576C429.212 195.938 429.281 196.348 429.227 196.75L429.122 197.149H424.422C424.462 197.019 424.489 196.886 424.504 196.75C424.487 196.445 424.389 196.149 424.222 195.893C423.949 195.431 423.538 195.065 423.047 194.848C422.363 194.493 421.608 194.296 420.838 194.273C420.126 194.218 419.411 194.327 418.747 194.59C418.089 194.871 417.834 195.239 417.983 195.693C418.203 196.25 418.544 196.751 418.981 197.161C419.488 197.676 419.963 198.221 420.403 198.793C420.613 199.04 420.748 199.34 420.794 199.66C420.839 199.98 420.794 200.307 420.662 200.602C420.146 201.453 419.335 202.084 418.382 202.375C416.806 203.03 415.119 203.381 413.412 203.408C411.568 203.471 409.727 203.213 407.972 202.645L405.269 203.819L402.108 202.281L404.729 201.107C404.254 200.779 403.831 200.383 403.471 199.932C403.202 199.625 402.99 199.271 402.849 198.887C402.759 198.613 402.703 198.329 402.684 198.042C402.653 197.847 402.653 197.649 402.684 197.455L402.778 197.232H407.478C407.429 197.386 407.39 197.542 407.361 197.701C407.38 198.086 407.511 198.457 407.737 198.77C408.111 199.355 408.651 199.817 409.288 200.097C410.136 200.523 411.065 200.763 412.014 200.801C412.871 200.86 413.731 200.724 414.528 200.402C415.178 200.12 415.421 199.752 415.257 199.298C415.026 198.738 414.673 198.236 414.223 197.831C413.706 197.322 413.227 196.776 412.789 196.198C412.583 195.947 412.455 195.641 412.419 195.318C412.384 194.995 412.443 194.668 412.59 194.378C413.139 193.521 413.97 192.882 414.94 192.57C416.456 191.958 418.075 191.639 419.71 191.631C421.44 191.571 423.166 191.838 424.798 192.417L427.489 191.243L430.438 192.852L427.735 194.026C428.297 194.418 428.743 194.953 429.028 195.576V195.576Z" fill="#EA8B24"/>
<path d="M416.032 210.406C427.953 210.406 437.617 204.75 437.617 197.772C437.617 190.794 427.953 185.137 416.032 185.137C404.111 185.137 394.448 190.794 394.448 197.772C394.448 204.75 404.111 210.406 416.032 210.406Z" stroke="#F7931E" stroke-width="2.03" stroke-miterlimit="10"/>
<path d="M421.86 208.586C436.065 208.586 447.581 201.847 447.581 193.533C447.581 185.219 436.065 178.479 421.86 178.479C407.655 178.479 396.14 185.219 396.14 193.533C396.14 201.847 407.655 208.586 421.86 208.586Z" fill="#FF912E"/>
<path d="M396.14 193.521V189.177L398.936 192.652L396.14 193.521Z" fill="#E0944F"/>
<path d="M447.581 189.177V193.521H444.314L446.711 190.034L447.581 189.177Z" fill="#E0944F"/>
<path d="M421.86 204.23C436.065 204.23 447.581 197.49 447.581 189.177C447.581 180.863 436.065 174.123 421.86 174.123C407.655 174.123 396.14 180.863 396.14 189.177C396.14 197.49 407.655 204.23 421.86 204.23Z" fill="#FFB92C"/>
<path d="M434.903 187.169C435.087 187.531 435.156 187.94 435.102 188.343L434.997 188.742H430.297C430.337 188.612 430.364 188.478 430.379 188.343C430.362 188.037 430.264 187.742 430.097 187.486C429.824 187.023 429.413 186.658 428.922 186.441C428.238 186.086 427.483 185.889 426.713 185.865C426.001 185.811 425.286 185.919 424.622 186.182C423.964 186.464 423.709 186.832 423.858 187.286C424.078 187.843 424.419 188.344 424.856 188.754C425.363 189.269 425.838 189.814 426.278 190.386C426.488 190.632 426.623 190.933 426.669 191.253C426.714 191.573 426.669 191.899 426.537 192.194C426.021 193.046 425.21 193.677 424.257 193.967C422.681 194.623 420.994 194.973 419.287 195.001C417.443 195.063 415.602 194.805 413.847 194.237L411.144 195.412L407.984 193.873L410.604 192.699C410.129 192.372 409.706 191.976 409.347 191.525C409.077 191.218 408.865 190.864 408.724 190.48C408.634 190.206 408.578 189.922 408.559 189.635C408.528 189.44 408.528 189.242 408.559 189.047L408.653 188.824H413.353C413.304 188.978 413.265 189.135 413.236 189.294C413.255 189.679 413.386 190.05 413.612 190.363C413.986 190.948 414.526 191.41 415.163 191.689C416.011 192.115 416.94 192.355 417.889 192.394C418.746 192.453 419.606 192.316 420.403 191.995C421.053 191.713 421.296 191.345 421.132 190.891C420.901 190.331 420.548 189.829 420.098 189.423C419.581 188.914 419.102 188.369 418.664 187.791C418.458 187.539 418.33 187.234 418.294 186.911C418.259 186.588 418.318 186.261 418.465 185.971C419.014 185.114 419.845 184.474 420.815 184.163C422.331 183.551 423.95 183.232 425.585 183.223C427.315 183.164 429.041 183.431 430.673 184.01L433.364 182.836L436.313 184.444L433.61 185.619C434.172 186.011 434.618 186.546 434.903 187.169V187.169Z" fill="#EA8B24"/>
<path d="M421.907 201.999C433.828 201.999 443.492 196.342 443.492 189.365C443.492 182.387 433.828 176.73 421.907 176.73C409.986 176.73 400.323 182.387 400.323 189.365C400.323 196.342 409.986 201.999 421.907 201.999Z" stroke="#F7931E" stroke-width="2.03" stroke-miterlimit="10"/>
<path d="M398.889 178.174C398.889 178.174 399.23 188.014 391.663 188.014C391.663 188.014 398.29 189.188 398.29 195.494C398.29 195.494 399.007 188.449 406.115 188.449C406.115 188.507 399.089 189.47 398.889 178.174Z" fill="white"/>
<path d="M181.916 204.695C197.079 203.402 208.221 188.902 206.803 172.308C205.386 155.715 191.945 143.313 176.783 144.606C161.62 145.9 150.478 160.4 151.896 176.993C153.313 193.586 166.754 205.989 181.916 204.695Z" fill="#F2AE16"/>
<path d="M186.703 203.296C201.866 202.002 213.008 187.502 211.59 170.909C210.173 154.316 196.732 141.913 181.57 143.207C166.407 144.5 155.265 159 156.683 175.594C158.1 192.187 171.541 204.589 186.703 203.296Z" fill="#FFD008"/>
<path d="M186.386 199.587C199.674 198.453 209.438 185.743 208.195 171.199C206.952 156.654 195.174 145.782 181.886 146.916C168.599 148.049 158.835 160.759 160.078 175.304C161.32 189.849 173.099 200.721 186.386 199.587Z" stroke="#F7931E" stroke-width="1.015" stroke-miterlimit="10"/>
<path d="M195.485 170.788C192.676 168.44 188.916 168.557 185.556 169.462C184.271 166.784 182.971 164.119 181.655 161.465C182.421 161.241 183.209 161.099 184.005 161.042C186.355 160.866 185.826 157.191 183.453 157.367C182.278 157.472 181.125 157.753 180.033 158.201C179.293 156.733 178.565 155.265 177.813 153.809C176.72 151.696 173.324 153.187 174.417 155.312C175.216 156.862 175.991 158.424 176.767 160.009C172.361 163.132 169.4 168.557 172.76 173.466C175.228 177.082 179.199 175.814 182.618 174.499L183.641 174.088C184.847 176.632 186.022 179.188 187.166 181.756C185.554 182.12 183.915 182.355 182.266 182.46C179.916 182.613 180.445 186.288 182.818 186.135C184.805 186.012 186.773 185.686 188.693 185.161C189.093 186.053 189.504 186.934 189.868 187.815C190.068 188.265 190.438 188.617 190.897 188.794C191.357 188.971 191.868 188.959 192.318 188.76C192.768 188.56 193.121 188.191 193.298 187.731C193.476 187.272 193.463 186.762 193.264 186.312C192.9 185.49 192.524 184.668 192.148 183.857C193.979 183.018 195.57 181.735 196.777 180.123C197.819 178.705 198.267 176.937 198.026 175.194C197.784 173.451 196.873 171.871 195.485 170.788V170.788ZM179.528 171.704C175.921 171.704 174.499 169.356 175.897 166.279C176.448 165.06 177.282 163.989 178.33 163.156C179.599 165.708 180.848 168.264 182.078 170.824C181.292 171.267 180.432 171.565 179.54 171.704H179.528ZM193.816 177.928C193.072 179.092 191.99 180.002 190.714 180.534C189.547 177.975 188.372 175.419 187.189 172.867C187.518 172.785 187.835 172.702 188.176 172.667C191.02 172.303 196.225 173.677 193.875 177.928H193.816Z" fill="#F7931E"/>
<path d="M336.602 179.782C338.02 163.189 326.878 148.689 311.715 147.395C296.553 146.102 283.112 158.504 281.694 175.098C280.277 191.691 291.419 206.191 306.581 207.484C321.744 208.778 335.185 196.376 336.602 179.782Z" fill="#F2AE16"/>
<path d="M331.819 178.378C333.236 161.785 322.094 147.285 306.932 145.991C291.769 144.697 278.329 157.1 276.911 173.693C275.493 190.286 286.636 204.787 301.798 206.08C316.96 207.374 330.401 194.971 331.819 178.378Z" fill="#FFD008"/>
<path d="M328.424 178.088C329.666 163.544 319.902 150.834 306.615 149.7C293.328 148.566 281.549 159.438 280.306 173.983C279.063 188.528 288.827 201.238 302.115 202.371C315.402 203.505 327.181 192.633 328.424 178.088Z" stroke="#F7931E" stroke-width="1.015" stroke-miterlimit="10"/>
<path d="M313.22 185.407C313.114 181.756 310.505 179.02 307.603 177.117C308.747 174.385 309.871 171.646 310.975 168.898C311.643 169.313 312.265 169.797 312.832 170.342C314.547 172.01 316.921 169.168 315.182 167.489C314.324 166.682 313.35 166.01 312.291 165.493C312.891 163.966 313.466 162.44 314.101 160.913C314.959 158.694 311.575 157.144 310.717 159.387C310.094 161.007 309.448 162.628 308.802 164.248C303.538 163.074 297.522 164.448 296.076 170.213C295.019 174.464 298.603 176.589 301.869 178.256L302.856 178.75C301.752 181.341 300.635 183.928 299.507 186.511C298.164 185.549 296.898 184.481 295.724 183.317C294.02 181.638 291.658 184.491 293.374 186.171C294.807 187.578 296.382 188.834 298.074 189.916C297.674 190.809 297.287 191.689 296.899 192.582C296.703 193.029 296.691 193.536 296.866 193.992C297.042 194.448 297.39 194.817 297.836 195.017C298.281 195.218 298.788 195.236 299.246 195.066C299.704 194.895 300.077 194.551 300.283 194.108C300.659 193.286 301.011 192.464 301.376 191.642C303.223 192.449 305.243 192.78 307.251 192.605C308.982 192.404 310.568 191.544 311.68 190.203C312.792 188.862 313.343 187.144 313.22 185.407V185.407ZM301.975 174.111C299.625 171.387 300.365 168.816 303.608 167.794C304.885 167.396 306.238 167.307 307.556 167.536C306.499 170.174 305.418 172.808 304.313 175.438C303.46 175.14 302.668 174.69 301.975 174.111V174.111ZM306.84 188.907C305.476 189.127 304.079 188.926 302.833 188.331C303.969 185.756 305.089 183.172 306.193 180.581C306.463 180.769 306.745 180.957 307.004 181.18C309.154 183.059 311.528 187.838 306.792 188.907H306.84Z" fill="#F7931E"/>
<path d="M160.834 162.17C160.834 162.17 161.175 172.01 153.608 172.01C153.608 172.01 160.235 173.184 160.235 179.489C160.235 179.489 160.951 172.444 168.06 172.444C168.025 172.456 160.975 173.419 160.834 162.17Z" fill="white"/>
<defs>
<linearGradient id="paint0_linear_1_54" x1="233.943" y1="297.968" x2="259.112" y2="262.479" gradientUnits="userSpaceOnUse">
<stop stop-color="#666666" stop-opacity="0"/>
<stop offset="1" stop-color="#4D4D4D"/>
</linearGradient>
<linearGradient id="paint1_linear_1_54" x1="27681.7" y1="10381.4" x2="28494.1" y2="8456.94" gradientUnits="userSpaceOnUse">
<stop stop-color="#666666" stop-opacity="0"/>
<stop offset="1" stop-color="#4D4D4D"/>
</linearGradient>
<linearGradient id="paint2_linear_1_54" x1="17211.5" y1="19466.6" x2="18646.8" y2="16104.1" gradientUnits="userSpaceOnUse">
<stop stop-color="#666666" stop-opacity="0"/>
<stop offset="1" stop-color="#4D4D4D"/>
</linearGradient>
<linearGradient id="paint3_linear_1_54" x1="2227.9" y1="6608.85" x2="2630.15" y2="6002.08" gradientUnits="userSpaceOnUse">
<stop stop-color="#666666" stop-opacity="0"/>
<stop offset="1" stop-color="#4D4D4D"/>
</linearGradient>
</defs>
</svg>
