<svg width="346" height="411" viewBox="0 0 346 411" fill="none" xmlns="http://www.w3.org/2000/svg">
<path d="M173.076 410.145C268.394 410.145 345.665 364.828 345.665 308.926C345.665 253.023 268.394 207.706 173.076 207.706C77.7576 207.706 0.486938 253.023 0.486938 308.926C0.486938 364.828 77.7576 410.145 173.076 410.145Z" fill="#C4C4C4"/>
<path d="M23.9695 351.292L123.959 294.224L163.122 281.624L178.954 275.997L194.589 277.949L51.3758 365.359C51.3758 365.359 44.4068 361.305 23.9695 351.292Z" fill="url(#paint0_linear_107_4)"/>
<path d="M73.3585 391.556L193.377 323.007L227.54 338.133L243.372 332.506L259.007 334.457L135.473 407.786C135.473 407.786 93.811 401.524 73.3585 391.556Z" fill="url(#paint1_linear_107_4)"/>
<path d="M191.059 25.61L201.164 30.072L191.453 34.3374L189.12 29.3157" fill="#EF7F6C"/>
<path d="M98.9922 321.979L182.938 273.139C186.307 271.178 189.103 268.372 191.051 265C192.999 261.628 194.03 257.807 194.043 253.914L196.755 32.0686C196.755 26.2452 187.665 23.2806 182.681 26.2452L95.8411 77.3997C93.6862 78.6699 91.9002 80.4792 90.6595 82.6489C89.4188 84.8186 88.7661 87.2739 88.766 89.7723V316.125C88.7686 317.318 89.086 318.49 89.6862 319.521C90.2864 320.553 91.1482 321.409 92.185 322.002C93.2217 322.596 94.3967 322.906 95.5917 322.902C96.7868 322.898 97.9596 322.579 98.9922 321.979Z" fill="#124577"/>
<path d="M92.2657 322.054L103.249 327.848L101.977 320.209L94.3564 318.833" fill="#EF7F6C"/>
<path d="M109.522 327.545L193.468 278.705C196.85 276.739 199.656 273.923 201.608 270.536C203.559 267.15 204.586 263.312 204.588 259.405V35.4416C204.59 34.3937 204.314 33.364 203.788 32.4572C203.262 31.5505 202.505 30.799 201.594 30.2795C200.682 29.76 199.649 29.4908 198.6 29.4996C197.55 29.5083 196.522 29.7945 195.619 30.3291L106.34 82.9961C104.185 84.2663 102.399 86.0756 101.158 88.2454C99.9177 90.4151 99.2651 92.8703 99.2649 95.3687V321.676C99.2617 322.875 99.5765 324.053 100.177 325.092C100.778 326.13 101.643 326.991 102.685 327.587C103.727 328.183 104.908 328.493 106.109 328.486C107.31 328.478 108.487 328.154 109.522 327.545Z" fill="#F4F4F4"/>
<path d="M104.613 108.997L200.255 54.2425V250.163L104.613 305.371V108.997Z" fill="#68E1FD"/>
<path d="M165.657 286.952C166.42 283.759 165.12 280.712 162.751 280.148C160.383 279.583 157.844 281.714 157.081 284.907C156.317 288.1 157.618 291.147 159.986 291.711C162.354 292.276 164.893 290.145 165.657 286.952Z" fill="#BABABC"/>
<path d="M164.925 63.6657C164.924 64.0405 164.824 64.4085 164.635 64.7324C164.446 65.0564 164.175 65.3249 163.849 65.511L145.366 76.0989C145.042 76.2841 144.675 76.3811 144.301 76.3802C143.927 76.3794 143.56 76.2806 143.237 76.0938C142.913 75.9071 142.644 75.6388 142.457 75.3159C142.27 74.993 142.171 74.6267 142.17 74.2535V73.7998C142.171 73.4194 142.274 73.0463 142.469 72.7192C142.663 72.392 142.942 72.1228 143.276 71.9393L161.759 61.8204C162.082 61.6425 162.446 61.5515 162.816 61.5561C163.185 61.5607 163.547 61.6609 163.866 61.8468C164.185 62.0327 164.45 62.298 164.636 62.6168C164.821 62.9356 164.921 63.297 164.925 63.6657Z" fill="#CCCCCC"/>
<path d="M175.382 58.7597C175.928 57.2868 175.493 55.7685 174.41 55.3684C173.327 54.9683 172.006 55.8378 171.46 57.3107C170.914 58.7835 171.35 60.3019 172.433 60.702C173.515 61.1021 174.836 60.2325 175.382 58.7597Z" fill="#CCCCCC"/>
<path d="M173.303 101.812V114.2C173.304 114.645 173.421 115.082 173.642 115.468C173.863 115.855 174.181 116.177 174.564 116.404C174.947 116.631 175.383 116.755 175.828 116.764C176.274 116.773 176.714 116.666 177.106 116.454L188.574 110.222C188.978 110 189.315 109.674 189.55 109.277C189.784 108.881 189.908 108.429 189.907 107.968V95.2326C189.905 94.7837 189.786 94.3433 189.56 93.9549C189.335 93.5666 189.011 93.244 188.622 93.0191C188.233 92.7943 187.792 92.6751 187.342 92.6733C186.892 92.6716 186.45 92.7874 186.059 93.0092L174.515 99.6341C174.145 99.8649 173.839 100.186 173.627 100.567C173.415 100.948 173.304 101.376 173.303 101.812Z" fill="#EF7F6C"/>
<path d="M115.612 134.786V147.174C115.613 147.618 115.73 148.055 115.951 148.442C116.172 148.828 116.489 149.151 116.873 149.378C117.256 149.605 117.691 149.729 118.137 149.737C118.582 149.746 119.023 149.639 119.414 149.427L130.883 143.135C131.287 142.913 131.624 142.587 131.858 142.19C132.093 141.794 132.216 141.342 132.216 140.881V128.206C132.214 127.757 132.094 127.317 131.869 126.928C131.643 126.54 131.32 126.218 130.931 125.993C130.542 125.768 130.1 125.649 129.651 125.647C129.201 125.645 128.759 125.761 128.368 125.983L116.945 132.562C116.545 132.782 116.212 133.103 115.977 133.494C115.743 133.885 115.617 134.33 115.612 134.786Z" fill="#7EB753"/>
<path d="M145.124 118.843V131.231C145.125 131.676 145.242 132.113 145.463 132.499C145.684 132.886 146.002 133.208 146.385 133.435C146.768 133.662 147.204 133.786 147.649 133.795C148.095 133.804 148.535 133.697 148.927 133.485L160.395 127.193C160.799 126.971 161.136 126.644 161.37 126.248C161.605 125.852 161.729 125.399 161.728 124.939V112.264C161.729 111.811 161.61 111.365 161.383 110.973C161.156 110.58 160.829 110.254 160.435 110.029C160.042 109.803 159.595 109.685 159.141 109.687C158.687 109.689 158.242 109.811 157.85 110.04L146.381 116.62C145.996 116.849 145.677 117.175 145.457 117.565C145.236 117.955 145.122 118.396 145.124 118.843Z" fill="#F2F2F2"/>
<path d="M136.952 266.404C139.03 259.875 136.772 253.332 131.908 251.789C127.043 250.245 121.416 254.287 119.338 260.815C117.26 267.343 119.518 273.886 124.382 275.43C129.247 276.973 134.874 272.932 136.952 266.404Z" fill="#F2F2F2"/>
<path d="M131.939 261.268C132.508 258.656 131.511 256.222 129.712 255.831C127.913 255.441 125.994 257.241 125.425 259.854C124.856 262.466 125.853 264.9 127.651 265.29C129.45 265.681 131.37 263.88 131.939 261.268Z" fill="#C4B7B3"/>
<path d="M122.141 274.243C122.141 274.243 124.141 265.5 129.186 264.441C134.231 263.383 135.473 269.766 135.473 269.766C134.802 271.109 133.866 272.303 132.72 273.275C131.575 274.247 130.244 274.978 128.807 275.423C123.762 277.117 122.141 274.243 122.141 274.243Z" fill="#C4B7B3"/>
<path d="M167.284 249.469C169.535 242.399 167.086 235.312 161.815 233.64C156.544 231.968 150.447 236.343 148.197 243.412C145.946 250.482 148.395 257.569 153.666 259.241C158.937 260.913 165.034 256.538 167.284 249.469Z" fill="#EA7554"/>
<path d="M153.547 240.301C153.866 240.21 156.683 241.98 156.577 242.57C156.471 243.16 155.062 245.156 155.275 245.519C155.487 245.882 158.304 249.452 159.91 249.679C160.989 249.007 162.003 248.237 162.94 247.38C163.461 247.578 163.922 247.906 164.28 248.333C164.637 248.759 164.88 249.269 164.986 249.815C164.986 250.466 162.365 252.659 160.744 253.218C158.638 253.944 152.154 246.76 151.381 244.884C150.608 243.009 153.547 240.301 153.547 240.301Z" fill="white"/>
<path d="M176.56 148.247V160.635C176.561 161.08 176.678 161.517 176.899 161.903C177.12 162.29 177.438 162.612 177.821 162.839C178.204 163.066 178.64 163.19 179.085 163.199C179.531 163.208 179.971 163.101 180.363 162.889L191.831 156.597C192.235 156.375 192.572 156.048 192.807 155.652C193.041 155.255 193.165 154.803 193.165 154.343V141.668C193.163 141.219 193.043 140.778 192.817 140.39C192.592 140.002 192.268 139.679 191.879 139.454C191.49 139.23 191.049 139.11 190.599 139.109C190.15 139.107 189.707 139.223 189.317 139.444L177.848 146.024C177.457 146.249 177.132 146.573 176.906 146.964C176.68 147.354 176.561 147.797 176.56 148.247Z" fill="#7EB753"/>
<path d="M119.854 180.722V193.11C119.855 193.555 119.972 193.991 120.193 194.378C120.414 194.764 120.731 195.087 121.115 195.314C121.498 195.541 121.933 195.665 122.379 195.673C122.825 195.682 123.265 195.575 123.656 195.363L135.125 189.071C135.529 188.849 135.866 188.523 136.1 188.126C136.335 187.73 136.458 187.278 136.458 186.817V174.142C136.456 173.693 136.336 173.253 136.111 172.865C135.885 172.476 135.562 172.154 135.173 171.929C134.784 171.704 134.342 171.585 133.893 171.583C133.443 171.581 133.001 171.697 132.61 171.919L121.142 178.498C120.751 178.724 120.426 179.048 120.2 179.438C119.974 179.828 119.854 180.271 119.854 180.722Z" fill="#EF7F6C"/>
<path d="M149.79 164.023V176.411C149.791 176.856 149.908 177.293 150.129 177.679C150.35 178.066 150.668 178.388 151.051 178.615C151.434 178.842 151.87 178.966 152.315 178.975C152.761 178.984 153.201 178.877 153.593 178.665L165.061 172.373C165.465 172.15 165.802 171.824 166.037 171.428C166.271 171.031 166.395 170.579 166.395 170.119V157.444C166.393 156.995 166.273 156.554 166.047 156.166C165.822 155.778 165.498 155.455 165.109 155.23C164.72 155.005 164.279 154.886 163.829 154.884C163.38 154.883 162.937 154.998 162.547 155.22L151.078 161.8C150.687 162.025 150.362 162.349 150.136 162.74C149.91 163.13 149.791 163.573 149.79 164.023Z" fill="#7EB753"/>
<path d="M177.545 228.972V241.36C177.546 241.805 177.663 242.242 177.884 242.628C178.105 243.014 178.423 243.337 178.806 243.564C179.189 243.791 179.625 243.915 180.07 243.924C180.516 243.932 180.956 243.826 181.348 243.614L192.695 237.276C193.099 237.054 193.436 236.728 193.67 236.331C193.905 235.935 194.028 235.483 194.028 235.022V222.347C194.026 221.898 193.906 221.458 193.681 221.07C193.455 220.681 193.132 220.359 192.743 220.134C192.354 219.909 191.912 219.79 191.463 219.788C191.013 219.786 190.571 219.902 190.18 220.124L178.772 226.688C178.383 226.926 178.065 227.263 177.849 227.665C177.634 228.066 177.529 228.517 177.545 228.972Z" fill="#FFAC99"/>
<path d="M189.883 234.033C190.957 231.539 190.357 228.885 188.543 228.106C186.729 227.328 184.388 228.718 183.313 231.212C182.239 233.706 182.839 236.359 184.653 237.138C186.467 237.917 188.808 236.527 189.883 234.033Z" fill="white"/>
<path d="M275.626 44.2143C276.65 43.6895 277.511 42.8946 278.114 41.916C278.718 40.9374 279.041 39.8125 279.05 38.6633V6.30984C279.048 5.20301 278.754 4.11626 278.198 3.15875C277.642 2.20124 276.843 1.40669 275.882 0.854913C274.921 0.303134 273.831 0.0135552 272.723 0.0152663C271.614 0.0169774 270.525 0.309918 269.566 0.864662L218.814 30.4199C217.837 30.9876 217.032 31.8062 216.48 32.7905C215.928 33.7748 215.651 34.8887 215.678 36.0163L217.389 76.9459L275.626 44.2143Z" fill="#68E1FD"/>
<path d="M217.389 76.9459V85.8548L229.479 66.5093" fill="#68E1FD"/>
<path d="M226.025 42.3841L270.49 16.9279C270.924 16.6752 271.24 16.2607 271.368 15.7757C271.496 15.2906 271.425 14.7747 271.172 14.3415C271.047 14.1269 270.88 13.9392 270.682 13.7889C270.484 13.6386 270.258 13.5287 270.018 13.4655C269.532 13.3378 269.015 13.4081 268.581 13.6608L224.101 39.1321C223.695 39.399 223.407 39.8118 223.297 40.2849C223.187 40.758 223.264 41.2551 223.511 41.6732C223.759 42.0914 224.158 42.3984 224.626 42.5308C225.094 42.6631 225.595 42.6106 226.025 42.3841Z" fill="white"/>
<path d="M228.237 55.3164L272.702 29.8602C273.136 29.6075 273.452 29.193 273.58 28.708C273.707 28.2229 273.637 27.707 273.384 27.2738C273.131 26.8405 272.716 26.5254 272.23 26.3978C271.744 26.2701 271.227 26.3404 270.793 26.5931L226.313 52.0493C225.879 52.3021 225.563 52.7165 225.435 53.2016C225.308 53.6866 225.378 54.2025 225.631 54.6358C225.884 55.069 226.299 55.3841 226.785 55.5118C227.271 55.6394 227.788 55.5692 228.222 55.3164H228.237Z" fill="white"/>
<path d="M252.795 142.515C252.795 142.515 267.203 159.153 267.718 171.163C268.233 183.172 251.189 204.257 251.189 204.257L240.175 186.908C240.175 186.908 254.507 172.115 240.175 160.726C240.175 160.726 235.266 141.517 252.795 142.575" fill="#2593C7"/>
<path d="M247.326 305.628C247.326 305.628 252.75 313.191 252.295 317.517C251.841 321.843 244.947 329.3 243.372 332.431C241.796 335.562 241.387 336.968 243.372 339.222C245.356 341.476 262.249 326.804 262.643 324.444C263.036 322.085 260.279 313.07 260.279 313.07L267.778 322.538L273.248 319.317L261.658 299.835" fill="#EA7554"/>
<path d="M245.175 339.479C245.629 339.025 259.007 334.397 259.007 334.397C259.007 334.397 265.294 327.863 265.067 325.322C264.839 322.78 262.582 312.934 260.234 313.04C257.885 313.146 257.628 326.229 257.628 326.229L245.175 339.479Z" fill="#15156D"/>
<path d="M229.252 318.076L227.54 338.072C227.54 338.072 223.207 341.234 222.147 340.961C221.086 340.689 217.905 339.857 217.874 339.358C217.844 338.859 219.389 325.231 218.965 324.868C218.541 324.505 211.89 335.274 209.875 335.456C207.86 335.637 191.922 326.456 193.437 322.962C194.952 319.468 202.633 321.298 206.421 321.268C210.208 321.238 215.511 319.075 218.268 312.586" fill="#EA7554"/>
<path d="M219.208 263.912L209.512 315.157C209.512 315.157 215.102 322.463 235.13 321.54L250.023 285.239" fill="#24285B"/>
<path d="M214.92 183.49C214.92 183.49 199.982 205.255 204.573 240.498C208.648 271.732 239.887 308.563 239.887 308.563C239.887 308.563 249.235 312.677 268.672 294.299L247.235 260.206C247.235 260.206 268.157 211.805 243.463 181.085" fill="#24285B"/>
<g opacity="0.55">
<path opacity="0.55" d="M158.562 157.625C150.987 156.975 145.775 146.72 146.821 134.287C147.866 121.853 154.684 112.597 162.395 113.247C170.106 113.897 175.182 124.153 174.136 136.586C173.091 149.019 166.198 158.276 158.562 157.625ZM161.971 117.376C156.835 116.938 151.79 124.848 150.972 134.635C150.154 144.421 153.775 153.057 158.926 153.496C164.077 153.935 169.106 146.024 169.925 136.238C170.743 126.452 167.107 117.785 161.971 117.376Z" fill="#F2F2F2"/>
</g>
<path d="M172.803 141.728C172.803 138.93 168.5 138.93 168.44 141.728C168.44 143.241 168.44 144.663 168.44 146.13C168.273 145.812 168.107 145.495 167.955 145.177C166.25 141.126 164.976 136.909 164.152 132.593C163.607 129.794 159.607 131.08 159.956 133.742C160.246 135.859 160.692 137.952 161.289 140.004L160.865 139.823C160.492 139.701 160.098 139.656 159.708 139.693C159.317 139.729 158.938 139.845 158.594 140.034C158.251 140.223 157.949 140.48 157.709 140.789C157.469 141.099 157.295 141.455 157.199 141.834C156.986 142.499 156.949 143.208 157.093 143.891H156.759C156.289 144.051 155.863 144.319 155.517 144.674C155.17 145.029 154.913 145.461 154.765 145.934C154.617 146.408 154.584 146.909 154.667 147.398C154.75 147.887 154.948 148.349 155.244 148.747C154.703 149.174 154.332 149.78 154.199 150.456C154.109 151.228 154.236 152.011 154.565 152.715C154.894 153.42 155.412 154.02 156.062 154.449C157.577 155.689 159.198 157.308 160.607 158.654C162.41 160.408 164.44 162.133 166.137 163.539C167.834 164.946 170.591 160.318 170.682 158.76C170.992 158.859 171.322 158.881 171.642 158.824C171.963 158.767 172.264 158.633 172.521 158.433C172.778 158.234 172.982 157.974 173.115 157.678C173.249 157.382 173.308 157.057 173.288 156.733C172.854 151.752 172.692 146.75 172.803 141.728Z" fill="#FFAC99"/>
<path d="M164.092 146.372C163.082 144.234 162.132 142.056 161.244 139.838C161.062 139.369 160.289 139.581 160.486 140.049C161.375 142.328 162.35 144.567 163.41 146.765C163.622 147.234 164.304 146.826 164.092 146.372Z" fill="#AF594A"/>
<path d="M217.193 135.436C217.193 135.436 209.905 141.986 207.087 146.523C204.27 151.061 192.968 163.524 188.317 159.773C183.666 156.022 175.424 148.868 175.424 148.868C175.424 148.868 163.652 156.945 164.819 165.354C164.819 165.354 175.272 186.681 191.559 181.992C207.845 177.304 211.905 171.147 211.905 171.147L214.359 185.018C214.359 185.018 234.57 191.34 243.947 181.992C243.947 181.992 250.098 142.167 245.568 136.223" fill="#2EA6DE"/>
<path d="M214.935 111.311C214.784 111.765 214.435 126.225 219.359 127.601C224.283 128.978 232.646 125.544 234.812 120.961C236.978 116.378 233.888 101.797 226.116 100.95C218.344 100.103 216.329 107.091 214.935 111.311Z" fill="#FFAC99"/>
<path d="M253.053 134.105C251.659 130.929 249.371 129.22 249.917 125.453C250.341 122.564 251.068 119.721 250.053 116.847C249.038 113.973 246.508 112.521 244.114 110.797C243.421 110.288 242.772 109.721 242.175 109.103L241.66 108.241C240.236 105.82 239.205 102.901 237.297 100.814C235.392 98.9157 232.938 97.662 230.282 97.2292C227.507 96.7264 224.659 96.7901 221.909 97.4166C219.159 98.0431 216.566 99.2194 214.284 100.874C214.284 100.874 210.057 104.928 211.39 109.269C212.723 113.61 217.995 112.022 220.919 113.988C224.162 116.181 222.101 120.341 220.738 123.063C219.695 125.103 219.174 127.369 219.223 129.658C219.264 131.792 218.514 133.866 217.117 135.482C215.602 137.599 213.844 139.807 213.723 142.53C213.481 147.884 219.162 159.168 235.418 154.978C236.463 154.706 237.554 154.388 238.645 154.025C242.115 153.072 245.37 151.465 248.235 149.291C252.795 145.737 255.446 139.565 253.053 134.105Z" fill="#56403D"/>
<path d="M217.208 274.47C217.208 274.47 234.312 304.025 239.933 308.532L235.16 321.54C235.16 321.54 215.268 293.709 217.208 274.47Z" fill="#15156D"/>
<path d="M246.871 258.648C241.409 247.135 238.372 234.626 237.948 221.893C237.948 220.88 236.327 220.88 236.433 221.893C236.859 234.896 239.953 247.674 245.523 259.435C245.947 260.358 247.235 259.556 246.871 258.648Z" fill="#15156D"/>
<defs>
<linearGradient id="paint0_linear_107_4" x1="118.839" y1="310.65" x2="55.8067" y2="347.781" gradientUnits="userSpaceOnUse">
<stop stop-color="#858B91"/>
<stop offset="0.99" stop-color="#BFBFBF"/>
</linearGradient>
<linearGradient id="paint1_linear_107_4" x1="46470.5" y1="19649.9" x2="36230.5" y2="31234.5" gradientUnits="userSpaceOnUse">
<stop stop-color="#959595"/>
<stop offset="0.99" stop-color="#B7B7B7"/>
</linearGradient>
</defs>
</svg>
