<svg width="437" height="316" viewBox="0 0 437 316" fill="none" xmlns="http://www.w3.org/2000/svg">
<path opacity="0.45" d="M218.355 315.998C338.795 315.998 436.431 306.989 436.431 295.877C436.431 284.764 338.795 275.756 218.355 275.756C97.9156 275.756 0.279755 284.764 0.279755 295.877C0.279755 306.989 97.9156 315.998 218.355 315.998Z" fill="#E6E6E6"/>
<path opacity="0.58" d="M342.007 275.592C342.007 275.592 328.776 271.98 325.891 259.695C325.891 259.695 346.387 255.56 346.97 276.681L342.007 275.592Z" fill="#68E1FD"/>
<path opacity="0.73" d="M343.621 274.353C343.621 274.353 334.382 259.77 342.515 246.127C342.515 246.127 358.093 256.008 351.171 274.398L343.621 274.353Z" fill="#68E1FD"/>
<path d="M345.998 274.353C345.998 274.353 350.887 258.949 365.658 256.023C365.658 256.023 368.423 266.039 356.09 274.398L345.998 274.353Z" fill="#68E1FD"/>
<path d="M336.416 273.95L339.092 292.265L355.985 292.339L358.467 274.04L336.416 273.95Z" fill="#24285B"/>
<path d="M292.373 0.198456H128.341V293.922H292.373V0.198456Z" fill="#124577"/>
<path d="M277.677 33.6785H141.901V240.395H277.677V33.6785Z" fill="white"/>
<path opacity="0.56" d="M210.85 282.906C219.718 282.906 226.907 275.728 226.907 266.875C226.907 258.021 219.718 250.844 210.85 250.844C201.983 250.844 194.794 258.021 194.794 266.875C194.794 275.728 201.983 282.906 210.85 282.906Z" fill="white"/>
<path opacity="0.12" d="M242.455 11.6769H196.469V18.3789H242.455V11.6769Z" fill="black"/>
<path d="M179.814 23.2449C183.951 23.2449 187.304 19.8968 187.304 15.7668C187.304 11.6367 183.951 8.2886 179.814 8.2886C175.678 8.2886 172.324 11.6367 172.324 15.7668C172.324 19.8968 175.678 23.2449 179.814 23.2449Z" fill="white"/>
<path d="M76.7639 289.041C76.7639 289.041 74.357 292.026 75.7773 294.877C77.1975 297.728 74.9102 300.116 72.7873 298.041C70.6643 295.967 69.9617 287.593 69.9617 287.593L74.058 285.399L76.7639 289.041Z" fill="#68E1FD"/>
<path d="M101.581 146.747C101.581 146.747 118.594 146.552 125.307 162.598C132.019 178.644 132.662 204.288 132.662 204.288L163.504 184.242L128.685 217.976L114.812 200.273L101.581 146.747Z" fill="#68E1FD"/>
<path opacity="0.3" d="M101.581 146.747C101.581 146.747 118.594 146.552 125.307 162.598C132.019 178.644 132.662 204.288 132.662 204.288L163.504 184.242L128.685 217.976L114.812 200.273L101.581 146.747Z" fill="white"/>
<path d="M146.939 267.666C146.939 267.666 148.434 271.159 151.649 271.263C154.863 271.368 155.879 274.457 153.024 275.428C150.168 276.398 142.559 273.069 142.559 273.069V268.427L146.939 267.666Z" fill="#68E1FD"/>
<path d="M78.1991 120.013C80.399 123.247 82.1539 126.761 83.4167 130.462C83.5385 130.911 83.57 131.379 83.5095 131.84C83.449 132.302 83.2976 132.746 83.0641 133.149C82.8306 133.551 82.5196 133.903 82.149 134.185C81.7785 134.467 81.3557 134.673 80.9051 134.79C79.4824 135.262 77.9536 135.313 76.5027 134.937C75.0518 134.561 73.7408 133.774 72.7274 132.671L67.8836 128.372C67.008 127.406 66.4531 126.193 66.2952 124.9C66.1373 123.606 66.384 122.296 67.0016 121.148C69.0497 116.685 75.9566 116.356 78.1991 120.013Z" fill="#F4A28C"/>
<path d="M70.0664 128.163L73.2806 147.239L86.2423 147.836L78.6925 132.925L70.0664 128.163Z" fill="#F4A28C"/>
<path d="M80.5014 123.79L83.4914 125.178C83.6646 125.256 83.8149 125.377 83.9284 125.529C84.0418 125.681 84.1147 125.86 84.1401 126.048C84.1655 126.236 84.1426 126.427 84.0736 126.604C84.0046 126.781 83.8917 126.937 83.7456 127.059L81.6526 128.82L80.5014 123.79Z" fill="#F4A28C"/>
<path opacity="0.31" d="M79.8287 135.179C78.275 135.266 76.7262 134.936 75.3437 134.223C75.3437 134.223 75.7174 139.239 81.9964 139.447L79.8287 135.179Z" fill="#CE8172"/>
<path d="M47.5367 162.136C62.4867 142.731 96.9913 140.671 113.317 151.807C129.328 162.793 121.629 227.753 121.629 227.753L83.043 238.38C83.043 238.38 25.62 195.034 47.5367 162.136Z" fill="#68E1FD"/>
<path d="M82.9682 238.38L87.797 250.023C88.4322 253.423 88.3396 256.92 87.5254 260.282C86.7112 263.644 85.1938 266.796 83.0729 269.532L71.1129 285.025L77.7656 289.787L95.1674 275.846C98.745 273.006 101.638 269.401 103.633 265.296C105.628 261.191 106.674 256.69 106.694 252.127V246.157L113.152 230.723L82.9682 238.38Z" fill="#24285B"/>
<path opacity="0.08" d="M65.1328 156.598C65.1328 156.598 83.6708 164.061 81.9815 183.093C80.2921 202.124 85.9582 213.901 115.783 212.766L111.014 230.603L82.9682 238.38C73.5139 229.156 65.234 218.803 58.3156 207.557L56.5067 204.572L65.2823 179.346L65.1328 156.598Z" fill="black"/>
<path d="M82.9682 238.38L100.908 251.441L124.739 244.082C125.901 243.73 127.122 243.618 128.329 243.751C129.536 243.885 130.703 244.262 131.76 244.859C132.817 245.456 133.741 246.262 134.477 247.226C135.213 248.191 135.745 249.295 136.041 250.471L140.436 268.606L148.524 267.92L145.908 243.44C145.44 239.027 143.368 234.939 140.084 231.949C136.8 228.959 132.531 227.274 128.087 227.215C116 227.067 104.014 229.436 92.895 234.171L82.9682 238.38Z" fill="#24285B"/>
<path d="M181.68 165.84L169.594 153.948L127.872 196.22L139.958 208.111L181.68 165.84Z" fill="#24285B"/>
<path opacity="0.29" d="M181.68 165.84L169.594 153.948L127.872 196.22L139.958 208.111L181.68 165.84Z" fill="white"/>
<path d="M71.2624 132.163L69.3338 131.417C66.7384 130.464 63.9075 130.354 61.2459 131.104C60.8005 131.289 60.3211 131.377 59.8389 131.365C59.3568 131.352 58.8828 131.237 58.4481 131.029C58.0133 130.82 57.6276 130.522 57.3163 130.154C57.0049 129.786 56.7749 129.357 56.6412 128.894C54.8472 123.909 60.005 123.596 60.005 123.596C59.1859 122.864 58.6127 121.898 58.3639 120.83C58.115 119.761 58.2026 118.642 58.6146 117.625C60.005 113.938 65.103 116.864 65.103 116.864C65.103 116.864 63.1893 112.55 66.1195 111.027C69.0498 109.505 71.8454 113.819 71.8454 113.819C71.8454 113.819 71.8454 108.997 75.4783 110.266C79.1111 111.535 80.5463 112.923 79.5746 116.356C78.6028 119.789 70.6046 123.476 70.6046 123.476C70.6046 123.476 78.6477 127.073 71.2624 132.163Z" fill="#24285B"/>
<path d="M156.885 190.342L146.215 179.845C143.669 177.339 139.57 177.369 137.061 179.912L99.4419 218.026C96.9325 220.569 96.9626 224.661 99.509 227.166L110.179 237.664C112.725 240.17 116.824 240.14 119.333 237.597L156.952 199.483C159.462 196.94 159.432 192.848 156.885 190.342Z" fill="#24285B"/>
<path d="M252.471 82.3538C243.898 73.922 233.013 68.2177 221.193 65.9623C209.373 63.7068 197.149 65.0015 186.066 69.6825C174.982 74.3636 165.538 82.2208 158.928 92.2607C152.317 102.301 148.837 114.072 148.927 126.087C149.016 138.102 152.673 149.82 159.433 159.76C166.193 169.7 175.753 177.416 186.905 181.931C198.057 186.446 210.3 187.558 222.085 185.127C233.87 182.695 244.668 176.829 253.114 168.271C258.724 162.588 263.158 155.858 266.162 148.464C269.166 141.07 270.682 133.158 270.622 125.179C270.563 117.2 268.929 109.312 265.814 101.963C262.7 94.6152 258.166 87.9518 252.471 82.3538ZM177.871 157.926C171.471 151.626 167.086 143.572 165.271 134.783C163.455 125.994 164.29 116.865 167.671 108.55C171.051 100.235 176.825 93.1078 184.262 88.0689C191.7 83.0301 200.466 80.3061 209.454 80.2414C218.442 80.1767 227.247 82.7742 234.756 87.7055C242.265 92.6367 248.142 99.6803 251.642 107.946C255.142 116.211 256.109 125.327 254.421 134.141C252.732 142.955 248.464 151.071 242.156 157.464C237.966 161.71 232.979 165.09 227.481 167.411C221.982 169.732 216.079 170.949 210.109 170.992C204.14 171.035 198.22 169.903 192.688 167.661C187.157 165.42 182.122 162.112 177.871 157.926Z" fill="#FFD200"/>
<path d="M67.6594 158.061C65.0396 156.184 61.8248 155.325 58.6164 155.644C55.408 155.962 52.4258 157.437 50.2277 159.792C39.8823 170.584 27.1748 201.437 42.5583 221.737C61.8289 247.112 88.1857 238.291 122.571 227.797L120.956 219.633C120.956 219.633 56.8356 228.245 63.8471 200.616C69.4085 178.824 77.0031 165.076 67.6594 158.061Z" fill="#68E1FD"/>
<path opacity="0.3" d="M67.6594 158.061C65.0396 156.184 61.8248 155.325 58.6164 155.644C55.408 155.962 52.4258 157.437 50.2277 159.792C39.8823 170.584 27.1748 201.437 42.5583 221.737C61.8289 247.112 88.1857 238.291 122.571 227.797L120.956 219.633C120.956 219.633 56.8356 228.245 63.8471 200.616C69.4085 178.824 77.0031 165.076 67.6594 158.061Z" fill="white"/>
<path d="M121.539 222.633C121.539 222.633 132.258 217.364 132.542 222.633C132.826 227.902 122.571 227.797 122.571 227.797L121.539 222.633Z" fill="#F4A28C"/>
<path d="M151.828 204.661C151.828 204.661 161.172 201.676 158.914 197.482C156.657 193.287 151.335 195.526 151.828 204.661Z" fill="#F4A28C"/>
<path d="M74.4467 126.581C74.4467 126.581 71.965 124.506 70.47 126.581C68.975 128.656 72.6377 131.716 75.1942 129.477L74.4467 126.581Z" fill="#F4A28C"/>
<path d="M220.628 107.49C217.98 107.482 215.408 108.371 213.332 110.013C211.577 111.415 210.123 113.156 209.057 115.132C207.996 113.156 206.547 111.415 204.796 110.013C202.714 108.371 200.138 107.482 197.485 107.49C190.01 107.49 184.374 113.595 184.374 121.685C184.374 130.432 191.416 136.417 202.06 145.478C203.869 146.97 205.917 148.762 208.04 150.627C208.316 150.883 208.679 151.026 209.057 151.026C209.434 151.026 209.797 150.883 210.073 150.627C212.211 148.762 214.259 147.015 216.053 145.478C226.698 136.417 233.724 130.432 233.724 121.685C233.739 113.595 228.103 107.49 220.628 107.49Z" fill="#68E1FD"/>
<path d="M248.495 197.482H171.397V225.528H248.495V197.482Z" fill="#24285B"/>
<path d="M224.619 207.751H178.813V216.393H224.619V207.751Z" fill="#68E1FD"/>
<path d="M224.619 207.751H211V216.393H224.619V207.751Z" fill="white"/>
<path d="M240.332 205.781H230.211V218.543H240.332V205.781Z" fill="#FFD200"/>
<path d="M241.334 204.213H229.209V206.691H241.334V204.213Z" fill="#FFD200"/>
<path d="M236.535 202.572H233.963V204.691H236.535V202.572Z" fill="#FFD200"/>
<path opacity="0.08" d="M240.332 206.691H230.211V208.244H240.332V206.691Z" fill="black"/>
</svg>
