<svg width="404" height="344" viewBox="0 0 404 344" fill="none" xmlns="http://www.w3.org/2000/svg">
<path d="M399.444 198.969L243.959 108.39C242.842 107.744 241.574 107.404 240.284 107.404C238.994 107.404 237.726 107.744 236.609 108.39L4.03656 241.646C2.91536 242.291 1.98388 243.22 1.33614 244.341C0.688404 245.462 0.347321 246.734 0.347321 248.029C0.347321 249.324 0.688404 250.596 1.33614 251.717C1.98388 252.838 2.91536 253.768 4.03656 254.413L152.75 340.41C156.399 342.52 160.538 343.63 164.751 343.63C168.965 343.63 173.104 342.52 176.753 340.41L399.444 211.71C400.559 211.063 401.485 210.134 402.128 209.016C402.772 207.898 403.111 206.63 403.111 205.34C403.111 204.049 402.772 202.781 402.128 201.663C401.485 200.545 400.559 199.616 399.444 198.969Z" fill="#C4C4C4"/>
<path style="mix-blend-mode:multiply" opacity="0.63" d="M301.694 236.343L168.902 311.208L80.07 257.72L213.517 180.269L301.694 236.343Z" fill="url(#paint0_linear_1_131)"/>
<path d="M223.643 1.59558C241.248 12.0331 284.796 37.8631 297.813 45.4306C298.924 46.0757 299.844 47.0037 300.48 48.1204C301.117 49.2371 301.447 50.5026 301.437 51.7883V230.886C301.707 234.541 297.582 237.913 294.228 236.034L220.983 194.284C218.04 192.598 216.164 190.217 216.164 186.807V5.86839C216.162 4.9916 216.391 4.12977 216.83 3.37089C217.268 2.612 217.9 1.98324 218.66 1.54879C219.421 1.11434 220.283 0.889765 221.158 0.897984C222.033 0.906203 222.891 1.14692 223.643 1.59558Z" fill="#68E1FD"/>
<path d="M216.653 3.71913L239.963 17.1939V22.1746C239.963 22.5946 240.073 23.0072 240.283 23.3709C240.493 23.7346 240.794 24.0367 241.158 24.2467L258.981 34.5426C259.222 34.6808 259.496 34.7527 259.774 34.751C260.052 34.7494 260.325 34.6743 260.565 34.5333C260.804 34.3923 261.003 34.1903 261.14 33.9479C261.277 33.7055 261.348 33.4312 261.345 33.1527V29.562L294.755 49.2143C295.074 49.4006 295.34 49.6672 295.525 49.9877C295.709 50.3083 295.807 50.6717 295.809 51.0419V230.063C295.817 230.321 295.756 230.577 295.632 230.803C295.508 231.029 295.325 231.218 295.103 231.35C294.881 231.481 294.628 231.551 294.37 231.551C294.112 231.551 293.859 231.481 293.637 231.35L216.113 186.305C215.986 187.694 216.236 189.091 216.838 190.349C217.44 191.606 218.37 192.677 219.531 193.448C223.553 196.022 294.177 236.034 294.177 236.034C294.177 236.034 299.766 238.608 301.386 231.89V51.8012C301.388 50.6365 301.114 49.4879 300.587 48.4498C300.06 47.4117 299.294 46.5137 298.353 45.8296C295.179 43.4486 223.643 1.59559 223.643 1.59559C223.048 1.26119 222.392 1.05069 221.713 0.97674C221.035 0.90279 220.349 0.966912 219.696 1.16525C219.043 1.3636 218.437 1.69207 217.914 2.13094C217.391 2.56981 216.962 3.11002 216.653 3.71913Z" fill="#124577"/>
<path style="mix-blend-mode:multiply" d="M95.49 229.574C97.3147 231.272 101.054 225.262 103.328 226.073C106.835 227.302 110.501 228.018 114.212 228.196C117.656 228.588 121.132 227.823 124.094 226.021C125.425 225.036 126.495 223.739 127.212 222.245C127.928 220.751 128.27 219.104 128.207 217.447C128.143 215.791 127.677 214.175 126.848 212.74C126.02 211.305 124.854 210.094 123.452 209.213L127.486 207.206L141.159 216.729C141.159 216.729 140.028 236.768 103.071 233.962L60.0625 258.479L49.0758 250.165L95.49 229.574Z" fill="url(#paint1_linear_1_131)"/>
<path d="M90.9925 216.729C90.9925 209.007 100.27 203.023 112.118 203.023C123.966 203.023 133.243 209.046 133.243 216.729C133.243 224.413 123.966 230.436 112.118 230.436C100.27 230.436 90.9925 224.413 90.9925 216.729ZM97.0449 216.729C97.0449 220.346 103.239 224.374 112.118 224.374C120.997 224.374 127.191 220.346 127.191 216.729C127.191 213.113 120.997 209.085 112.118 209.085C103.239 209.085 97.0449 213.113 97.0449 216.729Z" fill="white"/>
<path d="M97.5589 222.444C96.865 221.813 67.8496 239.175 67.8496 239.175L49.0758 250.101L53.1621 253.267C53.672 253.662 54.2875 253.896 54.9304 253.939C55.5733 253.983 56.2146 253.834 56.7729 253.512L101.915 227.399L97.5589 222.444Z" fill="white"/>
<path d="M49.5513 242.649L57.1713 247.72L53.1621 253.331L44.9895 248.183C44.922 246.857 45.3528 245.553 46.1971 244.529C47.0414 243.505 48.238 242.834 49.5513 242.649Z" fill="white"/>
<path d="M58.6105 236.884C59.1377 236.433 59.7523 236.096 60.4157 235.894C61.0791 235.693 61.7771 235.631 62.4655 235.713L69.79 240.539L65.7808 246.15L56.7858 240.474C56.9183 239.089 57.5704 237.806 58.6105 236.884Z" fill="white"/>
<path d="M119.995 52.4576L109.715 46.679C109.715 46.679 100.052 56.3572 74.1333 44.105C74.1333 44.105 59.0474 73.7058 39.1299 88.0687C39.1299 88.0687 37.9606 142.045 67.6441 152.045" fill="#68E1FD"/>
<path opacity="0.51" d="M119.995 52.4576L109.715 46.679C109.715 46.679 100.052 56.3572 74.1333 44.105C74.1333 44.105 59.0474 73.7058 39.1299 88.0687C39.1299 88.0687 37.9606 142.045 67.6441 152.045" fill="#124577"/>
<path d="M48.0349 93.6414C62.6455 81.3486 74.5587 66.1612 83.0255 49.0342C88.3798 52.7266 94.5908 54.9804 101.064 55.5798C107.537 56.1792 114.056 55.1042 119.995 52.4576C119.995 52.4576 116.692 98.0043 106.233 120.346C95.7727 142.689 93.7038 146.241 84.0149 156.923C84.0149 156.923 71.8331 159.6 61.6045 145.752C47.3025 126.473 48.0349 93.6414 48.0349 93.6414Z" fill="#68E1FD"/>
<path d="M81.355 115.739C79.1619 111.869 77.0545 107.961 75.0328 104.015C74.7313 103.405 74.2742 102.885 73.7078 102.509C73.1413 102.133 72.4857 101.914 71.8074 101.873C71.129 101.833 70.452 101.973 69.845 102.279C69.238 102.585 68.7225 103.046 68.3508 103.616V103.693C67.9505 104.272 67.7162 104.95 67.6731 105.654C67.6301 106.357 67.78 107.058 68.1067 107.682C70.2012 111.737 72.3472 115.752 74.5317 119.729C77.0631 124.156 83.925 120.179 81.355 115.739Z" fill="white"/>
<path d="M74.84 115.842C82.9413 103.214 90.3496 90.1529 97.032 76.7174C99.2936 72.1614 106.104 76.164 103.842 80.7071C97.1601 94.1426 89.7518 107.203 81.6505 119.832C78.9263 124.092 72.0901 120.141 74.84 115.842Z" fill="white"/>
<path d="M265.984 131.183C265.984 131.183 274.568 125.597 274.645 125.533C274.722 125.469 268.926 121.041 268.926 121.041L265.534 127.412" fill="#3A270B"/>
<path d="M232.677 63.8346L240.335 58.8282L242.224 68.9568L234.476 67.3738" fill="#3A270B"/>
<path d="M243.265 58.5837C242.855 58.3466 242.391 58.2205 241.917 58.2178C241.444 58.2152 240.978 58.3361 240.566 58.5686C240.154 58.8011 239.809 59.1372 239.565 59.5438C239.322 59.9504 239.189 60.4135 239.179 60.8874L238.331 104.118C238.331 104.788 238.505 105.446 238.836 106.028C239.167 106.61 239.644 107.096 240.22 107.438L270.584 125.572C271.17 125.926 271.839 126.117 272.524 126.127C273.208 126.136 273.882 125.963 274.477 125.625C275.073 125.287 275.567 124.796 275.911 124.203C276.254 123.61 276.433 122.937 276.431 122.251V79.9735C276.433 79.2789 276.248 78.5967 275.895 77.9988C275.542 77.4008 275.035 76.9092 274.426 76.5758L243.265 58.5837Z" fill="#3A270B"/>
<path d="M235.131 63.9633C234.721 63.7262 234.257 63.6001 233.783 63.5975C233.31 63.5948 232.844 63.7157 232.432 63.9482C232.019 64.1807 231.675 64.5168 231.431 64.9234C231.188 65.3301 231.055 65.7931 231.045 66.267L230.197 109.497C230.197 110.167 230.371 110.826 230.702 111.408C231.033 111.99 231.51 112.476 232.085 112.818L262.463 130.964C263.049 131.318 263.718 131.51 264.402 131.519C265.087 131.528 265.761 131.355 266.356 131.017C266.951 130.679 267.446 130.188 267.789 129.596C268.133 129.003 268.312 128.329 268.31 127.644V85.366C268.312 84.6715 268.126 83.9893 267.774 83.3913C267.421 82.7933 266.913 82.3017 266.305 81.9684L235.131 63.9633Z" fill="#7D0000"/>
<path d="M248.734 100.367C252.334 100.079 254.884 95.2051 254.428 89.4801C253.972 83.7551 250.683 79.3473 247.083 79.6349C243.482 79.9225 240.932 84.7967 241.388 90.5217C241.844 96.2467 245.133 100.655 248.734 100.367Z" fill="#68E1FD"/>
<path d="M247.634 91.4663H246.349C245.341 91.4663 244.524 92.2845 244.524 93.2938V110.166C244.524 111.176 245.341 111.994 246.349 111.994H247.634C248.642 111.994 249.459 111.176 249.459 110.166V93.2938C249.459 92.2845 248.642 91.4663 247.634 91.4663Z" fill="#68E1FD"/>
<path d="M264.635 77.9271C266.366 77.9271 267.77 77.0801 267.77 76.0353C267.77 74.9904 266.366 74.1434 264.635 74.1434C262.903 74.1434 261.499 74.9904 261.499 76.0353C261.499 77.0801 262.903 77.9271 264.635 77.9271Z" fill="white"/>
<path d="M255.126 42.5863C240.438 39.0471 240.554 56.074 240.554 56.074V62.1615C240.445 63.0525 240.529 63.9565 240.798 64.8127C241.157 65.175 241.589 65.4556 242.066 65.6355C242.542 65.8154 243.052 65.8903 243.561 65.8551C244.434 65.8551 245.694 65.7136 246.131 64.9156C246.37 64.1729 246.445 63.3866 246.349 62.6119C246.259 61.1962 246.233 59.7677 246.285 58.352C246.375 55.2889 246.645 51.5566 248.611 49.047C249.255 48.2563 250.138 47.6961 251.127 47.4501C252.116 47.2042 253.159 47.2858 254.098 47.6828C261.64 50.1924 261.435 59.2657 261.435 59.2657V75.9967H267.706V58.8281C267.706 58.8281 266.588 45.3405 255.126 42.5863Z" fill="white"/>
<path d="M212.566 132.457C212.698 132.245 212.765 131.999 212.759 131.749C212.768 130.523 212.523 129.308 212.041 128.181C211.559 127.054 210.85 126.038 209.958 125.198C209.609 124.882 209.192 124.65 208.739 124.521C208.286 124.391 207.809 124.368 207.346 124.453C206.883 124.537 206.445 124.727 206.067 125.009C205.689 125.29 205.38 125.654 205.165 126.074C203.212 130.076 207.671 134.104 211.243 134.581C212.232 134.709 212.631 133.873 212.528 133.088C212.59 132.883 212.603 132.667 212.566 132.457Z" fill="#FBB5AD"/>
<path d="M209.02 201.749L201.837 197.746L207.812 214.13L209.02 201.749Z" fill="#382624"/>
<path d="M274.375 106.112C274.324 105.985 274.26 105.865 274.182 105.752C274.475 105.475 274.703 105.136 274.847 104.76C274.992 104.383 275.05 103.979 275.017 103.577C274.986 103.323 274.903 103.079 274.775 102.858C274.647 102.636 274.476 102.443 274.272 102.29C274.459 102.073 274.574 101.804 274.602 101.519C274.63 101.234 274.57 100.948 274.43 100.698C274.289 100.449 274.075 100.249 273.817 100.126C273.559 100.004 273.269 99.9636 272.987 100.012C270.97 100.411 269.633 103.075 268.541 104.645C267.744 105.803 266.986 107 266.279 108.223C266.151 106.473 265.92 104.722 265.778 103.075C265.637 101.428 263.093 101.325 263.105 103.075C263.249 105.705 262.976 108.342 262.296 110.887C262.032 111.021 261.793 111.199 261.589 111.415C254.082 119.321 244.676 125.165 234.27 128.39C233.787 128.599 233.379 128.951 233.102 129.4C232.825 129.848 232.692 130.371 232.722 130.898C232.751 131.424 232.941 131.929 233.266 132.344C233.592 132.758 234.036 133.063 234.54 133.216C234.575 133.721 234.764 134.202 235.081 134.596C235.398 134.99 235.828 135.276 236.313 135.417C236.386 135.801 236.538 136.165 236.759 136.486C236.98 136.807 237.266 137.079 237.598 137.283L235.851 138.055C232.985 139.252 234.244 144.001 237.136 142.779C248.061 138.226 257.658 130.978 265.033 121.711C265.881 120.9 266.716 120.089 267.603 119.24C268.888 117.953 275.12 111.672 273.578 108.944C274.041 108.017 274.837 107.309 274.375 106.112Z" fill="#FBB5AD"/>
<path d="M231.25 76.9105C228.32 78.0816 226.11 84.3879 226.316 85.7135L228.616 84.6324L229.027 84.182C229.432 81.6674 230.18 79.2206 231.25 76.9105Z" fill="#FBB5AD"/>
<path d="M231.7 82.0584C231.544 81.9485 231.37 81.8658 231.186 81.8139L230.993 81.6465C229.85 80.7585 228.089 81.9039 227.061 82.4831C225.737 83.1851 224.488 84.0218 223.335 84.9799C222.806 85.6983 222.43 86.5173 222.23 87.3865C221.806 88.429 221.356 89.4715 220.867 90.4882C219.856 92.6202 218.715 94.6876 217.449 96.6786C214.972 100.56 212.048 104.137 208.737 107.335C207.195 108.828 209.559 111.196 211.089 109.677L212.194 108.583C212.424 108.736 212.695 108.817 212.971 108.817C213.247 108.817 213.518 108.736 213.749 108.583C214.021 108.398 214.279 108.191 214.52 107.966L214.879 107.67C214.975 107.926 215.134 108.154 215.341 108.333C215.548 108.512 215.797 108.637 216.064 108.694C216.332 108.752 216.609 108.741 216.871 108.663C217.134 108.586 217.372 108.443 217.565 108.249L218.696 107.078C219.055 106.94 219.345 106.668 219.505 106.318C219.505 106.241 219.672 108.583 219.724 108.519C221.536 106.601 223.669 101.325 225.468 98.223C225.457 98.0724 225.498 97.9228 225.583 97.7983C226.997 95.5461 226.791 94.1947 226.971 91.595C226.968 90.1016 227.101 88.611 227.37 87.142L230.325 84.864C231.032 84.3235 231.803 83.4998 231.61 82.689C231.679 82.4863 231.71 82.2724 231.7 82.0584Z" fill="#FBB5AD"/>
<path d="M242.61 123.731C232.124 126.82 230.338 125.636 225.365 125.482C220.392 125.327 215.085 118.352 215.085 118.352C215.085 118.352 213.8 102.779 204.574 114.967C197.66 124.066 195.013 150.411 194.114 163.165C197.558 165.906 202.119 166.936 206.424 167.579C209.265 168.054 212.14 168.295 215.021 168.3C216.793 168.286 218.543 167.904 220.161 167.18L225.069 144.336C237.611 145.353 247.261 137.901 247.261 137.901L242.61 123.731Z" fill="#2EA6DE"/>
<path d="M220.135 105.031C220.135 105.031 226.881 117.991 220.225 121.595C213.569 125.198 208.339 119.201 207.773 117.644C207.208 116.087 207.285 104.079 220.135 105.031Z" fill="#FBB5AD"/>
<path d="M220.61 103.088C217.18 100.617 213.016 100.514 209.045 101.453C205.637 102.067 202.498 103.711 200.05 106.164C199.19 105.576 198.186 105.233 197.146 105.173C195.889 105.08 194.634 105.389 193.563 106.055C192.492 106.721 191.659 107.709 191.184 108.879C190.784 109.974 190.767 111.173 191.136 112.279C191.505 113.385 192.238 114.332 193.214 114.967C194.736 115.762 196.509 115.924 198.149 115.417V115.726C198.367 118.171 196.067 119.407 195.167 121.479C194.723 122.426 194.597 123.492 194.808 124.516C195.039 125.546 196.093 126.64 196.093 127.669C195.918 128.475 195.542 129.224 195 129.844C194.523 130.551 194.13 131.311 193.831 132.11C198.676 134.684 204.741 134.684 210.009 133.628C215.599 132.47 221.343 129.857 225.121 125.456C224.888 124.92 224.541 124.442 224.106 124.053C223.2 123.443 222.23 122.934 221.214 122.534C219.775 121.698 221.214 119.188 221.214 117.837C221.124 115.507 219.428 114.542 217.514 113.744C216.126 113.165 216.062 112.316 216.049 110.887C215.924 109.762 216.158 108.627 216.717 107.644C217.137 107.703 217.565 107.612 217.925 107.386C218.645 106.951 219.418 106.61 220.225 106.37C220.626 106.224 220.954 105.927 221.139 105.542C221.324 105.157 221.351 104.715 221.214 104.311C221.238 104.071 221.194 103.829 221.087 103.612C220.981 103.396 220.815 103.215 220.61 103.088Z" fill="#56403D"/>
<path d="M215.496 108.262C217.686 107.794 219.807 107.046 221.806 106.035C221.806 105.816 222.448 97.7597 208.159 100.552C193.87 103.345 200.642 120.475 200.642 120.475" fill="#56403D"/>
<path d="M199.896 286.484C198.611 286.034 196.671 285.687 195.746 284.515C194.821 283.344 194.923 281.452 194.885 280.024C194.846 278.595 194.885 277.128 194.885 275.687C194.805 275.623 194.74 275.543 194.693 275.452C194.647 275.361 194.62 275.261 194.615 275.159C194.535 273.981 194.535 272.798 194.615 271.62L188.678 271.041C188.678 271.041 186.044 281.208 186.211 282.366C186.378 283.524 192.032 291.246 194.898 291.774C197.763 292.302 205.743 289.792 206.463 288.685V288.582C204.265 287.977 202.068 287.244 199.896 286.484Z" fill="#FBB5AD"/>
<path d="M240.926 265.301C238.973 264.914 230.865 266.227 230.865 266.227C230.865 266.227 229.721 259.599 229.888 259.277L221.446 259.869C221.446 259.869 220.379 272.173 220.379 273.795C220.379 276.781 224.067 277.656 224.877 277.656C225.456 277.46 226.023 277.228 226.573 276.961C226.267 275.426 226.107 273.866 226.097 272.302C226.097 271.581 226.29 271.079 226.971 270.822C228.256 270.346 230.531 271.028 231.803 271.272C233.319 271.555 234.81 271.916 236.313 272.186C239.641 270.423 242.443 268.75 242.738 268.055C243.265 266.279 243.933 265.88 240.926 265.301Z" fill="#FBB5AD"/>
<path d="M243.753 265.815L243.548 265.584C242.905 264.953 241.209 265.017 240.412 264.992C237.19 265.032 233.984 265.464 230.865 266.279C230.865 266.279 238.575 265.236 238.819 266.613C238.945 267.165 238.94 267.738 238.807 268.287C238.673 268.837 238.413 269.348 238.048 269.779C234.848 272.624 229.862 269.483 226.753 268.145L220.97 265.648L220.598 270.358C220.598 270.358 220.199 276.176 220.598 276.793C220.996 277.411 224.453 279.264 225.147 278.891C225.84 278.518 228.128 277.179 228.128 277.179L227.678 271.491C227.678 271.491 232.458 273.563 234.707 272.971C236.39 272.533 245.745 268.492 243.753 265.815Z" fill="#56403D"/>
<path d="M216.524 263.19C224.029 264.618 231.944 263.306 237.624 258.183C237.752 245.661 238.909 234.361 238.536 221.852C237.945 201.427 234.977 181.376 220.662 165.443L194.602 161.44C184.027 181.582 181.868 273.756 181.868 273.756C181.868 273.756 195.039 282.276 205.242 278.171L209.097 201.363C209.097 201.363 215.997 209.548 217.257 214.117C218.22 217.424 216.357 247.759 216.524 263.19Z" fill="#24285B"/>
<path d="M191.261 282.495C191.261 282.495 194.371 292.212 195.489 292.791C196.607 293.37 208.544 289.612 206.771 287.334C205.627 285.88 198.431 285.905 197.776 285.712C197.776 285.712 201.567 286.999 201.567 287.553C201.567 288.106 196.799 290.371 196.555 289.921C196.311 289.47 191.12 280.912 191.12 280.912L186.237 279.187L182.215 288.132L185.62 289.599C185.62 289.599 186.661 292.315 187.008 292.315C187.355 292.315 190.13 287.295 190.13 287.295C190.13 287.295 190.824 290.5 191.312 290.847C191.801 291.195 195.759 294.464 197.57 291.967L194.229 288.209" fill="#56403D"/>
<path d="M182.228 288.235L182.844 290.461L187.021 292.417V288.235L184.618 287.398" fill="#56403D"/>
<path d="M234.565 171.904C236.547 171.519 237.697 168.847 237.134 165.935C236.57 163.024 234.506 160.975 232.524 161.36C230.542 161.745 229.392 164.418 229.955 167.329C230.519 170.241 232.583 172.289 234.565 171.904Z" fill="#507282"/>
<path d="M247.314 179.096C249.3 178.713 250.455 176.037 249.893 173.12C249.332 170.202 247.266 168.148 245.28 168.532C243.294 168.915 242.14 171.591 242.701 174.508C243.262 177.426 245.328 179.48 247.314 179.096Z" fill="#507282"/>
<path d="M258.738 184.925C260.72 184.54 261.87 181.868 261.307 178.956C260.743 176.045 258.679 173.996 256.697 174.381C254.715 174.766 253.565 177.439 254.129 180.35C254.692 183.262 256.756 185.31 258.738 184.925Z" fill="#507282"/>
<path d="M270.58 191.33C272.562 190.945 273.712 188.273 273.148 185.361C272.585 182.449 270.521 180.401 268.539 180.786C266.557 181.171 265.407 183.843 265.97 186.755C266.534 189.666 268.598 191.715 270.58 191.33Z" fill="#507282"/>
<defs>
<linearGradient id="paint0_linear_1_131" x1="145.554" y1="297.282" x2="235.052" y2="198.373" gradientUnits="userSpaceOnUse">
<stop stop-color="white" stop-opacity="0"/>
<stop offset="0.99" stop-color="#9E9E9E"/>
</linearGradient>
<linearGradient id="paint1_linear_1_131" x1="85.7882" y1="217.463" x2="99.6726" y2="241.228" gradientUnits="userSpaceOnUse">
<stop stop-color="#D46A00"/>
<stop offset="1" stop-color="white"/>
</linearGradient>
</defs>
</svg>
